<?xml version="1.0" encoding="UTF-8" standalone="no"?>
<!-- Created with Inkscape (http://www.inkscape.org/) -->

<svg
   width="202mm"
   height="169.99998mm"
   viewBox="0 0 202 169.99999"
   version="1.1"
   id="svg1"
   xml:space="preserve"
   sodipodi:docname="logo_white.svg"
   inkscape:export-filename="logo.svg"
   inkscape:export-xdpi="96"
   inkscape:export-ydpi="96"
   xmlns:inkscape="http://www.inkscape.org/namespaces/inkscape"
   xmlns:sodipodi="http://sodipodi.sourceforge.net/DTD/sodipodi-0.dtd"
   xmlns="http://www.w3.org/2000/svg"
   xmlns:svg="http://www.w3.org/2000/svg"><sodipodi:namedview
     id="namedview1"
     pagecolor="#c2c2c2"
     bordercolor="#eeeeee"
     borderopacity="1"
     inkscape:showpageshadow="0"
     inkscape:pageopacity="0"
     inkscape:pagecheckerboard="0"
     inkscape:deskcolor="#505050"
     inkscape:document-units="mm"
     showguides="false"><inkscape:page
       x="0"
       y="0"
       width="202"
       height="169.99998"
       id="page2"
       margin="0"
       bleed="0" /></sodipodi:namedview><defs
     id="defs1" /><g
     inkscape:label="Layer 1"
     inkscape:groupmode="layer"
     id="layer1"><g
       id="g46"
       transform="matrix(3.2967172,0,0,3.2967172,-196.95238,-145.03234)"
       style="fill:#ffffff;fill-opacity:1"><g
         id="g34"
         transform="translate(-55.692446,21.893429)"
         style="fill:#ffffff;fill-opacity:1"><rect
           style="fill:#ffffff;fill-opacity:1;stroke-width:0.264583"
           id="rect7"
           width="0.497549"
           height="1.7928921"
           x="145.85907"
           y="55.004902"
           ry="0.18443628" /></g><g
         id="g11"
         style="fill:#ffffff;fill-opacity:1"><g
           id="g35"
           transform="translate(-55.752423,21.702286)"
           style="fill:#ffffff;fill-opacity:1"><g
             id="g10"
             clip-path="none"
             style="mix-blend-mode:normal;fill:#ffffff;fill-opacity:1"
             transform="matrix(0.89348066,0,0,1,14.573743,-56.493667)"><g
               id="g6"
               style="fill:#ffffff;fill-opacity:1"><rect
                 style="fill:#ffffff;fill-opacity:1;stroke-width:0.264583"
                 id="rect1"
                 width="2.8147078"
                 height="38.241173"
                 x="113.07353"
                 y="86.18824"
                 ry="0.20261961" /><path
                 id="rect2"
                 style="fill:#ffffff;fill-opacity:1;stroke-width:0.272985"
                 d="m 113.38629,117.82941 c 4.70481,-0.009 10.15408,0.14017 14.21908,1.20104 0.55315,0.14436 4.85525,1.64566 8.12541,3.3384 2.48684,1.28727 4.5909,2.64617 6.81162,4.03568 1.22899,0.76898 4.68857,3.89172 4.57721,3.84841 -10.10122,-3.92871 -18.83452,-5.86618 -33.5596,-5.82463 -0.1195,3.4e-4 -0.38942,-0.28922 -0.38942,-0.40871 v -5.9745 c 0,-0.11949 0.0962,-0.21547 0.2157,-0.21569 z"
                 sodipodi:nodetypes="sssssssss" /><path
                 id="rect3"
                 style="fill:#ffffff;fill-opacity:1;stroke-width:0.264583"
                 d="m 120.85583,78.788338 c 1.64417,0.06369 3.28834,0.366816 4.93251,0.752206 0.13283,0.03113 4.37505,1.446162 4.37615,1.804089 l 0.0971,31.625187 c 3.4e-4,0.11226 -0.0904,0.20262 -0.20262,0.20262 h -9.2031 c -0.11225,0 -0.20262,-0.0904 -0.20262,-0.20262 V 78.990957 c 0,-0.112251 0.0905,-0.206963 0.20262,-0.202619 z"
                 sodipodi:nodetypes="sssssssss" /><path
                 id="rect4"
                 style="fill:#ffffff;fill-opacity:1;stroke-width:0.340876"
                 transform="matrix(0.70385319,-0.71034547,0.95218848,0.30551119,0,0)"
                 d="m -79.004445,185.40862 h 1.127082 c 0.167188,0 0.267299,0.15307 0.301783,0.30178 l 1.632018,7.03814 c 0.470334,2.02833 -3.720737,12.50747 -4.232628,13.40068 -1.702924,2.97146 -3.060029,6.19238 -7.974697,13.62404 -0.120783,0.18264 -0.359725,-0.037 -0.26852,-0.22444 5.585892,-11.47883 10.787965,-22.92764 9.113178,-33.83842 -0.0238,-0.15505 0.134596,-0.30178 0.301784,-0.30178 z"
                 sodipodi:nodetypes="sssssssss" /><path
                 id="rect5"
                 style="fill:#ffffff;fill-opacity:1;stroke-width:0.25639"
                 d="m 130.06471,81.21584 c 2.98499,1.376891 6.22321,2.999487 8.38131,5.203263 1.52646,1.558762 4.4736,4.898665 4.92187,5.479971 1.51184,1.960477 2.85632,3.7836 4.05221,5.675401 0.0563,0.0891 -0.2013,17.332795 -0.25971,17.245105 -5.3134,-7.97675 -10.25909,-16.426277 -16.77721,-22.854105 -0.0751,-0.07401 -0.24619,-0.184078 -0.24607,-0.289484 l 0.0118,-10.098516 c 1.2e-4,-0.105407 -0.17989,-0.405767 -0.0842,-0.361635 z"
                 sodipodi:nodetypes="ssssssssss" /></g><g
               id="g9"
               transform="matrix(-1.0000128,0,0,1,294.4839,0.09354428)"
               style="fill:#ffffff;fill-opacity:1"><rect
                 style="fill:#ffffff;fill-opacity:1;stroke-width:0.264583"
                 id="rect6"
                 width="2.8147078"
                 height="38.241173"
                 x="113.07353"
                 y="86.18824"
                 ry="0.20261961" /><path
                 id="path6"
                 style="fill:#ffffff;fill-opacity:1;stroke-width:0.272985"
                 d="m 113.38629,117.82941 c 4.70481,-0.009 10.15408,0.14017 14.21908,1.20104 0.55315,0.14436 4.85525,1.64566 8.12541,3.3384 2.48684,1.28727 4.5909,2.64617 6.81162,4.03568 1.22899,0.76898 4.68857,3.89172 4.57721,3.84841 -10.10122,-3.92871 -18.83452,-5.86618 -33.5596,-5.82463 -0.1195,3.4e-4 -0.38942,-0.28922 -0.38942,-0.40871 v -5.9745 c 0,-0.11949 0.0962,-0.21547 0.2157,-0.21569 z"
                 sodipodi:nodetypes="sssssssss" /><path
                 id="path7"
                 style="fill:#ffffff;fill-opacity:1;stroke-width:0.264583"
                 d="m 120.85583,78.788338 c 1.64417,0.06369 3.28834,0.366816 4.93251,0.752206 0.13283,0.03113 4.37505,1.446162 4.37615,1.804089 l 0.0971,31.625187 c 3.4e-4,0.11226 -0.0904,0.20262 -0.20262,0.20262 h -9.2031 c -0.11225,0 -0.20262,-0.0904 -0.20262,-0.20262 V 78.990957 c 0,-0.112251 0.0905,-0.206963 0.20262,-0.202619 z"
                 sodipodi:nodetypes="sssssssss" /><path
                 id="path8"
                 style="fill:#ffffff;fill-opacity:1;stroke-width:0.340876"
                 transform="matrix(0.70385319,-0.71034547,0.95218848,0.30551119,0,0)"
                 d="m -79.004445,185.40862 h 1.127082 c 0.167188,0 0.267299,0.15307 0.301783,0.30178 l 1.632018,7.03814 c 0.470334,2.02833 -3.720737,12.50747 -4.232628,13.40068 -1.702924,2.97146 -3.060029,6.19238 -7.974697,13.62404 -0.120783,0.18264 -0.359725,-0.037 -0.26852,-0.22444 5.585892,-11.47883 10.787965,-22.92764 9.113178,-33.83842 -0.0238,-0.15505 0.134596,-0.30178 0.301784,-0.30178 z"
                 sodipodi:nodetypes="sssssssss" /><path
                 id="path9"
                 style="fill:#ffffff;fill-opacity:1;stroke-width:0.25639"
                 d="m 130.06471,81.21584 c 2.98499,1.376891 6.22321,2.999487 8.38131,5.203263 1.52646,1.558762 4.4736,4.898665 4.92187,5.479971 1.51184,1.960477 2.85632,3.7836 4.05221,5.675401 0.0563,0.0891 -0.2013,17.332795 -0.25971,17.245105 -5.3134,-7.97675 -10.25909,-16.426277 -16.77721,-22.854105 -0.0751,-0.07401 -0.24619,-0.184078 -0.24607,-0.289484 l 0.0118,-10.098516 c 1.2e-4,-0.105407 -0.17989,-0.405767 -0.0842,-0.361635 z"
                 sodipodi:nodetypes="ssssssssss" /></g></g><path
             id="rect8"
             style="fill:#ffffff;stroke-width:0.25117;fill-opacity:1"
             d="m 146.07372,56.701286 h 0.0993 c 0.0215,0 0.0388,0.0173 0.0388,0.03879 v 1.663834 c 0,0.0086 -0.0198,0.03938 -0.0324,0.03879 l -0.0457,-0.0021 c -0.0124,-5.81e-4 -0.0788,-0.141502 -0.0785,-0.113851 l -0.0204,-1.586624 c -2.8e-4,-0.02149 0.0173,-0.03879 0.0388,-0.03879 z"
             sodipodi:nodetypes="cssssssssc" /></g></g></g></g></svg>
